HIERARCHY
ROOT Hips
{
    OFFSET 0.000000 0.000000 0.000000
    CHANNELS 6 Xposition Yposition Zposition Zrotation Xrotation Yrotation
    JOINT Spine
    {
        OFFSET -0.000000 7.236184 0.000000
        CHANNELS 3 Zrotation Xrotation Yrotation
        JOINT Spine1
        {
            OFFSET -0.000000 20.420147 0.000000
            CHANNELS 3 Zrotation Xrotation Yrotation
            JOINT Neck
            {
                OFFSET -0.000000 20.336288 1.848754
                CHANNELS 3 Zrotation Xrotation Yrotation
                JOINT Head
                {
                    OFFSET -0.000000 12.354461 -1.764923
                    CHANNELS 3 Zrotation Xrotation Yrotation
                    End Site
                    {
                        OFFSET -0.000000 22.061537 0.000000
                    }
                }
            }
            JOINT LeftShoulder
            {
                OFFSET 3.573296 18.396038 -0.314103
                CHANNELS 3 Zrotation Xrotation Yrotation
                JOINT LeftArm
                {
                    OFFSET 10.880760 0.000000 0.000000
                    CHANNELS 3 Zrotation Xrotation Yrotation
                    JOINT LeftForeArm
                    {
                        OFFSET 27.185530 0.000000 0.000000
                        CHANNELS 3 Zrotation Xrotation Yrotation
                        JOINT LeftHand
                        {
                            OFFSET 27.825975 0.000000 0.000000
                            CHANNELS 3 Zrotation Xrotation Yrotation
                            End Site
                            {
                                OFFSET 13.236923 0.000000 0.000000
                            }
                        }
                    }
                }
            }
            JOINT RightShoulder
            {
                OFFSET -3.474926 18.396038 -0.314103
                CHANNELS 3 Zrotation Xrotation Yrotation
                JOINT RightArm
                {
                    OFFSET -10.880760 0.000000 0.000000
                    CHANNELS 3 Zrotation Xrotation Yrotation
                    JOINT RightForeArm
                    {
                        OFFSET -27.185530 0.000000 0.000000
                        CHANNELS 3 Zrotation Xrotation Yrotation
                        JOINT RightHand
                        {
                            OFFSET -27.825975 0.000000 0.000000
                            CHANNELS 3 Zrotation Xrotation Yrotation
                            End Site
                            {
                                OFFSET -13.236923 0.000000 0.000000
                            }
                        }
                    }
                }
            }
        }
    }
    JOINT LeftUpLeg
    {
        OFFSET 8.824615 0.000000 0.000000
        CHANNELS 3 Zrotation Xrotation Yrotation
        JOINT LeftLeg
        {
            OFFSET -0.000000 -35.111282 0.000000
            CHANNELS 3 Zrotation Xrotation Yrotation
            JOINT LeftFoot
            {
                OFFSET -0.000000 -42.324711 0.000000
                CHANNELS 3 Zrotation Xrotation Yrotation
                JOINT LeftToeBase
                {
                    OFFSET -0.000000 -5.735999 13.236923
                    CHANNELS 3 Zrotation Xrotation Yrotation
                    End Site
                    {
                        OFFSET -0.000000 0.000000 3.529846
                    }
                }
            }
        }
    }
    JOINT RightUpLeg
    {
        OFFSET -8.824615 0.000000 0.000000
        CHANNELS 3 Zrotation Xrotation Yrotation
        JOINT RightLeg
        {
            OFFSET -0.000000 -35.111282 0.000000
            CHANNELS 3 Zrotation Xrotation Yrotation
            JOINT RightFoot
            {
                OFFSET -0.000000 -42.324711 0.000000
                CHANNELS 3 Zrotation Xrotation Yrotation
                JOINT RightToeBase
                {
                    OFFSET -0.000000 -5.735999 13.236923
                    CHANNELS 3 Zrotation Xrotation Yrotation
                    End Site
                    {
                        OFFSET -0.000000 0.000000 3.529846
                    }
                }
            }
        }
    }
}
MOTION
Frames:    12
Frame Time:    0.008333
-4.705001    80.227386    101.622864    -1.017291    -9.042946    -177.693176    -1.560255    -10.344234    0.433840    0.006125    5.938186    0.574719    2.580178    10.314266    -2.471585    5.540101    -0.556918    -1.898002    -1.088935    16.976425    -3.293799    -47.506100    34.601120    -40.132393    13.205868    -17.465231    -51.518818    19.406139    -11.484416    -1.326304    6.558091    16.955051    -4.850349    43.783463    39.013603    39.729565    -25.602634    -22.540485    52.923771    -27.935459    -10.011695    -0.268053    2.739420    -21.043863    0.317052    1.528695    30.173767    -1.004958    -6.441058    -14.683228    -11.461546    0.518898    -1.349583    -0.576597    -6.398585    -16.865990    -0.973296    1.652827    25.508596    7.323568    -1.444673    -12.766056    -13.123789    -2.289681    -1.568450    2.481815    
-4.682581    80.166039    101.634857    -0.970893    -8.992905    -177.692856    -1.538965    -10.317677    0.445494    0.017791    6.042148    0.583574    2.602115    10.385323    -2.502085    5.549596    -0.548727    -1.928252    -1.155614    17.115631    -3.383417    -47.204647    35.546181    -40.967934    13.412964    -17.630987    -51.191444    19.140257    -11.608310    -1.384858    6.643463    17.078695    -4.712319    42.943111    40.215744    40.884270    -25.760874    -22.897957    52.532726    -28.295420    -10.406559    -0.324932    2.778685    -21.254539    0.426279    1.650381    30.618433    -1.106065    -6.495669    -14.822996    -11.518217    0.514668    -1.390771    -0.571940    -6.319591    -17.010067    -0.933618    1.637871    25.853737    7.347121    -1.464588    -12.888746    -13.182904    -2.281574    -1.600595    2.473142    
-4.660027    80.107101    101.646439    -0.926970    -8.948369    -177.693176    -1.523905    -10.291892    0.458558    0.036012    6.141337    0.593881    2.620407    10.457460    -2.535522    5.556182    -0.533165    -1.962128    -1.215269    17.230984    -3.460589    -46.850407    36.410133    -41.739117    13.607883    -17.728024    -50.864506    18.816250    -11.670452    -1.460788    6.716383    17.199282    -4.590743    42.070080    41.287632    41.977840    -25.877033    -23.169115    52.208618    -28.572903    -10.728126    -0.321922    2.817663    -21.455633    0.538909    1.771702    31.036398    -1.212729    -6.533571    -14.951560    -11.565190    0.514138    -1.426238    -0.571389    -6.244270    -17.147072    -0.894057    1.625560    26.175892    7.364891    -1.485256    -13.002584    -13.235772    -2.272945    -1.631816    2.463897    
-4.637182    80.050919    101.657127    -0.886212    -8.908050    -177.694031    -1.514811    -10.267124    0.472945    0.057961    6.238604    0.605831    2.637734    10.527256    -2.571912    5.558465    -0.508025    -2.000106    -1.267172    17.322922    -3.523927    -46.468632    37.178253    -42.432617    13.785593    -17.744047    -50.539337    18.436806    -11.659635    -1.551936    6.780458    17.318172    -4.486876    41.208832    42.210827    42.983162    -25.941969    -23.341667    51.962265    -28.759911    -10.965050    -0.256654    2.855714    -21.643909    0.647059    1.887816    31.424913    -1.313952    -6.558175    -15.066319    -11.604856    0.516827    -1.458699    -0.574411    -6.173146    -17.275122    -0.855476    1.615478    26.474777    7.377738    -1.507241    -13.107521    -13.282825    -2.264301    -1.662180    2.454632    
-4.614230    79.998604    101.666405    -0.849441    -8.871692    -177.694916    -1.510906    -10.244511    0.488203    0.080288    6.335734    0.619143    2.656013    10.590094    -2.610614    5.555508    -0.471468    -2.042053    -1.310080    17.391060    -3.570656    -46.091618    37.825523    -43.022560    13.938716    -17.668930    -50.221397    18.012573    -11.567131    -1.654897    6.838255    17.435619    -4.404170    40.415535    42.959312    43.857624    -25.948715    -23.406366    51.803139    -28.847109    -11.107542    -0.130363    2.892160    -21.813978    0.740110    1.990924    31.775755    -1.396034    -6.573654    -15.163172    -11.639576    0.521597    -1.489801    -0.579746    -6.107346    -17.391504    -0.822802    1.605589    26.746517    7.389209    -1.527870    -13.202435    -13.322385    -2.256137    -1.691093    2.445881    
-4.591393    79.951500    101.673615    -0.816435    -8.838760    -177.694778    -1.510068    -10.224607    0.503656    0.099357    6.433662    0.633188    2.677013    10.641853    -2.650876    5.546505    -0.422905    -2.087433    -1.342709    17.435938    -3.597413    -45.752785    38.330444    -43.483273    14.060747    -17.498707    -49.916241    17.559692    -11.390287    -1.765387    6.892435    17.550627    -4.346449    39.742504    43.517727    44.560165    -25.897104    -23.363920    51.732544    -28.831028    -11.153626    0.049405    2.927060    -21.960850    0.812707    2.076677    32.081810    -1.452685    -6.583907    -15.240081    -11.671583    0.527228    -1.521448    -0.586040    -6.047112    -17.492781    -0.801628    1.593649    26.986887    7.404153    -1.548614    -13.285912    -13.354678    -2.248816    -1.716856    2.438035    
-4.568547    79.910187    101.678207    -0.785758    -8.807973    -177.692123    -1.509989    -10.207267    0.518733    0.113346    6.534298    0.647137    2.702352    10.680855    -2.692395    5.529158    -0.362095    -2.136462    -1.365406    17.459400    -3.602002    -45.475834    38.686291    -43.799873    14.149109    -17.233807    -49.622665    17.088633    -11.130115    -1.879650    6.945454    17.664354    -4.316605    39.218006    43.890625    45.072220    -25.791609    -23.223301    51.741905    -28.714563    -11.110323    0.272785    2.961457    -22.083363    0.868665    2.147443    32.343292    -1.490311    -6.591383    -15.298538    -11.701780    0.532664    -1.553543    -0.592117    -5.990898    -17.576899    -0.795573    1.577747    27.195454    7.425842    -1.567449    -13.358302    -13.379615    -2.242405    -1.738969    2.431159    
-4.546018    79.876144    101.679527    -0.756341    -8.778727    -177.685455    -1.508418    -10.192346    0.532408    0.120831    6.636625    0.659954    2.732499    10.706036    -2.734111    5.501669    -0.291503    -2.188178    -1.378170    17.463198    -3.581626    -45.282261    38.882988    -43.954586    14.202027    -16.885637    -49.343452    16.619692    -10.797812    -1.990659    6.998455    17.775270    -4.318600    38.870441    44.077557    45.370575    -25.639418    -23.000322    51.818981    -28.508062    -10.989704    0.522348    2.995991    -22.178419    0.914886    2.207076    32.555878    -1.520466    -6.597389    -15.339612    -11.729480    0.537203    -1.585457    -0.597197    -5.938049    -17.639486    -0.806091    1.557420    27.366308    7.454941    -1.583084    -13.417964    -13.397198    -2.237016    -1.756543    2.425378    
-4.523766    79.849991    101.677299    -0.727481    -8.751319    -177.673737    -1.504369    -10.180384    0.544055    0.121222    6.740726    0.670915    2.768431    10.717609    -2.775512    5.461164    -0.212231    -2.242471    -1.381612    17.448877    -3.534175    -45.179283    38.922745    -43.941242    14.221410    -16.467270    -49.074581    16.165548    -10.406006    -2.093076    7.052478    17.882610    -4.354490    38.707108    44.088284    45.450253    -25.445610    -22.712370    51.948540    -28.226425    -10.808120    0.782256    3.030994    -22.246653    0.958243    2.260198    32.720001    -1.553661    -6.602715    -15.365199    -11.754149    0.540546    -1.616366    -0.600948    -5.887889    -17.679602    -0.832202    1.533168    27.497650    7.490356    -1.595612    -13.464425    -13.408349    -2.232744    -1.768798    2.420788    
-4.502290    79.832603    101.671753    -0.700591    -8.728393    -177.657211    -1.499179    -10.173129    0.552860    0.115322    6.843202    0.679510    2.808821    10.717074    -2.815255    5.406988    -0.128317    -2.297710    -1.376645    17.418095    -3.459090    -45.166088    38.812378    -43.761955    14.211345    -16.005154    -48.817032    15.746958    -9.979399    -2.180374    7.106366    17.982691    -4.424095    38.727356    43.933647    45.313278    -25.217873    -22.383837    52.113056    -27.895607    -10.587748    1.031757    3.064699    -22.289070    1.000918    2.307628    32.832432    -1.593444    -6.608048    -15.375676    -11.775355    0.542583    -1.644716    -0.603245    -5.842415    -17.698181    -0.871219    1.506554    27.586050    7.529417    -1.604237    -13.496459    -13.413596    -2.229842    -1.775563    2.417665    
-4.481426    79.823914    101.663300    -0.677142    -8.712910    -177.636185    -1.495044    -10.172847    0.558840    0.103836    6.943875    0.685669    2.852320    10.706538    -2.853523    5.339256    -0.040902    -2.353856    -1.363913    17.370651    -3.354880    -45.234650    38.558502    -43.419170    14.176813    -15.510899    -48.563637    15.368602    -9.528748    -2.251529    7.159666    18.073286    -4.526769    38.922333    43.621410    44.964493    -24.955648    -22.027304    52.301495    -27.532232    -10.343561    1.262112    3.095524    -22.309359    1.042375    2.349077    32.894054    -1.638241    -6.614212    -15.371356    -11.793960    0.543285    -1.670460    -0.604054    -5.803176    -17.698862    -0.919886    1.479364    27.632206    7.569274    -1.608997    -13.514036    -13.414029    -2.228632    -1.777701    2.416361    
-4.461662    79.824158    101.652588    -0.659000    -8.708031    -177.611572    -1.493734    -10.181080    0.561531    0.087544    7.038836    0.689256    2.894780    10.688503    -2.889448    5.262369    0.046758    -2.408947    -1.343906    17.307169    -3.223041    -45.374794    38.169479    -42.924633    14.121416    -15.005566    -48.317352    15.044862    -9.073944    -2.305769    7.209443    18.148905    -4.658022    39.275536    43.163200    44.418488    -24.664961    -21.661367    52.500557    -27.160341    -10.093995    1.462016    3.121241    -22.309448    1.076211    2.380017    32.902493    -1.679417    -6.622001    -15.351906    -11.810564    0.542743    -1.692293    -0.603475    -5.772589    -17.684219    -0.972347    1.454779    27.634287    7.604620    -1.609797    -13.516397    -13.410860    -2.229801    -1.775705    2.417620    
